<svg width="22" height="20" viewBox="0 0 22 20" fill="none" xmlns="http://www.w3.org/2000/svg">
<path fill-rule="evenodd" clip-rule="evenodd" d="M2.48933 10.0018C2.48933 4.53099 7.00683 0.100161 12.521 0.251828C17.6018 0.392661 21.8485 4.63933 21.9893 9.72016C22.141 15.2343 17.7102 19.7518 12.2393 19.7518C9.97517 19.7518 7.906 18.9827 6.25933 17.6827C5.75016 17.2927 5.71767 16.5235 6.17267 16.0685C6.56267 15.6785 7.16933 15.646 7.60266 15.9818C8.881 16.9893 10.4952 17.5852 12.2393 17.5852C16.4643 17.5852 19.8768 14.1293 19.8227 9.89349C19.7685 5.86349 16.3777 2.47266 12.3477 2.41849C8.101 2.36433 4.656 5.77683 4.656 10.0018H6.59517C7.08266 10.0018 7.321 10.5868 6.98517 10.9227L3.96266 13.956C3.746 14.1727 3.41017 14.1727 3.1935 13.956L0.170998 10.9227C-0.175668 10.5868 0.0626649 10.0018 0.550165 10.0018H2.48933ZM11.156 6.48099C11.156 6.03683 11.5243 5.66849 11.9685 5.66849C12.4127 5.66849 12.781 6.03683 12.781 6.47016V10.1535L15.901 12.006C16.2802 12.2335 16.4102 12.7318 16.1827 13.1218C15.9552 13.501 15.4568 13.631 15.0668 13.4035L11.6868 11.3993C11.3618 11.2043 11.156 10.8468 11.156 10.4677V6.48099Z" fill="white"/>
</svg>
