<svg width="20" height="26" viewBox="0 0 20 26" fill="none" xmlns="http://www.w3.org/2000/svg">
<path fill-rule="evenodd" clip-rule="evenodd" d="M14.2499 9.45825H16.5024C17.7633 9.45825 18.3866 10.9883 17.4941 11.8808L10.9916 18.3833C10.4391 18.9358 9.54659 18.9358 8.99409 18.3833L2.49159 11.8808C1.59909 10.9883 2.23659 9.45825 3.49742 9.45825H5.74992V2.37492C5.74992 1.59575 6.38742 0.958252 7.16659 0.958252H12.8333C13.6124 0.958252 14.2499 1.59575 14.2499 2.37492V9.45825ZM1.49992 25.0416C0.720752 25.0416 0.083252 24.4041 0.083252 23.6249C0.083252 22.8458 0.720752 22.2083 1.49992 22.2083H18.4999C19.2791 22.2083 19.9166 22.8458 19.9166 23.6249C19.9166 24.4041 19.2791 25.0416 18.4999 25.0416H1.49992Z" fill="white"/>
</svg>
